<svg xmlns="http://www.w3.org/2000/svg" width="24" height="24" viewBox="0 0 24 24" fill="none" stroke="currentColor" stroke-width="2" stroke-linecap="round" stroke-linejoin="round" class="lucide lucide-blocks">
  <rect x="14" y="3" width="7" height="7" rx="1" />
  <rect x="10" y="14" width="7" height="7" rx="1" />
  <rect x="3" y="14" width="3" height="7" rx="1" />
  <path d="M3 10a1 1 0 0 1 1-1h5a1 1 0 0 1 1 1v0a1 1 0 0 1-1 1H4a1 1 0 0 1-1-1v0Z" />
  <path d="M14 10a1 1 0 0 1 1-1h1a1 1 0 0 1 1 1v0a1 1 0 0 1-1 1h-1a1 1 0 0 1-1-1v0Z" />
  <path d="M20 10a1 1 0 0 1 1-1h0a1 1 0 0 1 1 1v0a1 1 0 0 1-1 1h0a1 1 0 0 1-1-1v0Z" />
  <path d="M8.5 10V7" />
  <path d="M13.5 14v-4" />
  <path d="M17.5 14V7" />
  <path d="M6.5 14v-4" />
</svg>